<svg xmlns="http://www.w3.org/2000/svg" width="40" height="40" viewBox="0 0 40 40">
  <defs>
    <style>
      .cls-1, .cls-2 {
        fill: none;
      }

      .cls-1 {
        opacity: 0.4;
      }

      .cls-2 {
        stroke: #999;
        stroke-linecap: round;
        stroke-linejoin: round;
        stroke-width: 0.3px;
      }
    </style>
  </defs>
  <g id="twitter" transform="translate(-2221 -969)">
    <circle id="twitter-2" data-name="twitter" class="cls-1" cx="20" cy="20" r="20" transform="translate(2221 969)"/>
    <path id="twitter_d" class="cls-2" d="M3049.212,3638.95c.269-.426,2.839,3.542,7.986,3.478-.144-1.9.346-3.813,2.068-4.359a3.444,3.444,0,0,1,3.674,1.178,3.723,3.723,0,0,0,2.061-.852c-1.229,1.644-1.647,2.077-1.89,2.2a5.6,5.6,0,0,0,2.851-.955c-1.639,1.957-2.336,2.094-2.441,2.134.262,6.965-4.29,12.357-15.052,9.1a7.631,7.631,0,0,0,6.035-2.227,3.062,3.062,0,0,1-4.179-2.034,5.023,5.023,0,0,0,3.512-.264c-4.791.365-4.779-3.246-4.779-3.246a5.788,5.788,0,0,0,2.991.758C3048.929,3642.372,3048.943,3639.376,3049.212,3638.95Z" transform="translate(-816 -2656)"/>
  </g>
</svg>
